<svg width="419" height="218" viewBox="0 0 419 218" fill="none" xmlns="http://www.w3.org/2000/svg">
<path d="M0.599609 82.6553C0.599609 39.3746 0.599609 17.7342 14.6969 6.58411C28.7942 -4.56602 49.8527 0.418254 91.9699 10.3868L377.043 77.8598C397.157 82.6206 407.215 85.0009 413.088 92.4263C418.961 99.8517 418.961 110.187 418.961 130.857V163.284C418.961 188.957 418.961 201.794 410.985 209.77C403.009 217.745 390.173 217.745 364.499 217.745H55.0608C29.3875 217.745 16.5509 217.745 8.57527 209.77C0.599609 201.794 0.599609 188.957 0.599609 163.284V82.6553Z" fill="url(#paint0_linear_1322_2134)"/>
<defs>
<linearGradient id="paint0_linear_1322_2134" x1="0.599609" y1="159.255" x2="433.814" y2="159.255" gradientUnits="userSpaceOnUse">
<stop stop-color="#5936B4"/>
<stop offset="1" stop-color="#362A84"/>
</linearGradient>
</defs>
</svg>
